# xmcd
#
# Track frame offsets: 
#        150
#        12342
#        27437
#        48185
#        62260
#        74352
#        84555
#        98380
#        110972
#        123887
#        138300
#        150337
#
# Disc length: 2124 seconds
#
# Revision: 0
# Processed by: cddbd v1.5.2PL0 Copyright (c) Steve Scherf et al.
# Submitted via: ExactAudioCopy v0.95b4
#
DISCID=8f084a0c
DTITLE=Nat King Cole Trio  - Early years of Nat King Cole Trio - (JAPA
DTITLE=N) - (OBI) - (1942-1944)  
DYEAR=1900
DGENRE=
TTITLE0=Got a penny
TTITLE1=All for you
TTITLE2=The bugle call rag
TTITLE3=I'm lost
TTITLE4=Let's spring one
TTITLE5=Beautiful moons ago
TTITLE6=Tasty
TTITLE7=My lips remember tour kisses
TTITLE8=Vom vim veedle
TTITLE9=Let' s pretend
TTITLE10=Pitchin' up the boogie
TTITLE11=Honky tonk town
EXTD=
EXTT0=
EXTT1=
EXTT2=
EXTT3=
EXTT4=
EXTT5=
EXTT6=
EXTT7=
EXTT8=
EXTT9=
EXTT10=
EXTT11=
PLAYORDER=
